<svg id="圖層_1" data-name="圖層 1" xmlns="http://www.w3.org/2000/svg" viewBox="0 0 1920 970"><defs><style>.cls-1{fill:#e9c37c;}.cls-2{fill:#0b6c6d;}.cls-3{fill:#fff;}.cls-4{fill:none;stroke:#b15821;stroke-miterlimit:10;stroke-width:0.25px;}</style></defs><title>設計稿 降轉10-02-沿革</title><rect class="cls-1" x="0.34" y="-1.5" width="1919.66" height="971.01"/><path class="cls-2" d="M1674.87,529.13c-128.06,238.65-283.65,400.41-709,371.6-398.67-27-652.21-243.5-560.15-441.74,206.58-445,467.09-323.11,777.9-327.94C1526.48,125.71,1750.25,388.68,1674.87,529.13Z"/><path class="cls-3" d="M1685.5,532.52c-123.38,243.66-301.37,378.73-707.67,351.21C597.06,858,371,664.39,459.73,462.05,659,7.89,907.4,130.93,1204.36,124.66,1532,117.75,1758.1,389.14,1685.5,532.52Z"/><path class="cls-4" d="M1756.27,517.45C1626.75,759.3,1439,892.93,1008.89,863.8,605.81,836.5,334.06,556,427.16,355c209-450.93,776.52-274.57,839.95-264.59C1609.49,144.26,1832.51,375.12,1756.27,517.45Z"/></svg>