<svg id="圖層_1" data-name="圖層 1" xmlns="http://www.w3.org/2000/svg" viewBox="0 0 376 189"><defs><style>.cls-1{fill:#fff;}.cls-2,.cls-3{fill:none;stroke-miterlimit:10;}.cls-2{stroke:#f7f7f7;stroke-width:0.2px;}.cls-3{stroke:#b05821;stroke-width:0.25px;}.cls-4{fill:#086b6d;}.cls-5{fill:#b05821;}.cls-6{fill:#eee4ca;}</style></defs><title>關於背景1002試用-小-04</title><path class="cls-1" d="M307.5,109.66c-26.32,49.4-64.45,76.7-151.76,70.79-81.82-5.54-130.55-45-111.63-86.09C86.56,2.25,140,27.44,203.81,26.41,274.18,25.26,323,80.58,307.5,109.66Z"/><path class="cls-2" d="M316.62,119c-28.72,60.08-60.36,75-154.07,68.66-87.82-6-205-60.88-147.11-142.34C57.78-14.31,198.92,1,216.06,4,290.43,17.06,333.52,83.63,316.62,119Z"/><path class="cls-3" d="M336.21,108.24c-27.51,50.11-67.43,65.87-159.14,71.54C106.74,184.12,33.14,115.67,52.9,74c44.35-93.44,160-55.23,178.9-54.55C305.63,22.16,352.4,78.75,336.21,108.24Z"/><path class="cls-4" d="M300.07,104.87c-26,49.18-63.75,76.38-150,70.53C69.14,169.93,21,130.63,39.71,89.77c42-91.7,94.83-66.65,157.9-67.71C267.18,20.89,315.39,75.93,300.07,104.87Z"/><path class="cls-5" d="M229.51,160.26c3.05-10.45,11.75-20,24.9-19.35,12.35.58,22.37,8,18.37,17.58-7.44,17.72-16.14,14.51-25.69,16.34C234.78,177.19,227.44,167.38,229.51,160.26Z"/><path class="cls-6" d="M258.58,165.77c3.21-7.24,12.12-13.53,25.38-12.38,12.43,1.08,22.44,6.92,18.27,13.47-7.75,12.17-16.48,9.42-26.14,10.2C263.66,178.07,256.4,170.71,258.58,165.77Z"/></svg>